<svg width="609" height="53" viewBox="0 0 609 53" fill="none" xmlns="http://www.w3.org/2000/svg">
<path d="M38.032 46.96C34.144 50.56 29.656 52.36 24.568 52.36C21.208 52.36 18.04 51.736 15.064 50.488C12.088 49.192 9.472 47.392 7.216 45.088C5.008 42.784 3.256 40.024 1.96 36.808C0.664 33.544 0.0160001 29.968 0.0160001 26.08C0.0160001 22.576 0.664 19.264 1.96 16.144C3.256 13.024 5.032 10.312 7.288 8.008C9.592 5.704 12.304 3.88 15.424 2.536C18.544 1.192 21.904 0.519998 25.504 0.519998C30.256 0.519998 34.408 1.528 37.96 3.544C41.512 5.512 44.176 8.224 45.952 11.68L37.168 18.304C36.016 16 34.336 14.224 32.128 12.976C29.968 11.68 27.616 11.032 25.072 11.032C23.104 11.032 21.304 11.44 19.672 12.256C18.088 13.024 16.72 14.128 15.568 15.568C14.416 16.96 13.528 18.592 12.904 20.464C12.28 22.336 11.968 24.352 11.968 26.512C11.968 28.72 12.304 30.76 12.976 32.632C13.648 34.504 14.584 36.136 15.784 37.528C16.984 38.872 18.4 39.928 20.032 40.696C21.712 41.464 23.56 41.848 25.576 41.848C30.184 41.848 34.336 39.712 38.032 35.44V33.856H28.096V25.288H47.824V52H38.032V46.96ZM55.6304 52V0.879997H78.6704C81.0704 0.879997 83.2784 1.384 85.2944 2.392C87.3584 3.4 89.1344 4.72 90.6224 6.352C92.1104 7.984 93.2624 9.832 94.0784 11.896C94.9424 13.96 95.3744 16.048 95.3744 18.16C95.3744 19.744 95.1824 21.28 94.7984 22.768C94.4144 24.208 93.8624 25.576 93.1424 26.872C92.4224 28.168 91.5344 29.344 90.4784 30.4C89.4704 31.408 88.3184 32.272 87.0224 32.992L98.2544 52H84.9344L75.1424 35.512H67.4384V52H55.6304ZM67.4384 25.216H78.2384C79.6304 25.216 80.8304 24.568 81.8384 23.272C82.8464 21.928 83.3504 20.224 83.3504 18.16C83.3504 16.048 82.7744 14.368 81.6224 13.12C80.4704 11.872 79.2224 11.248 77.8784 11.248H67.4384V25.216ZM116.987 0.879997H127.643L146.291 52H134.195L130.235 40.552H114.323L110.435 52H98.3393L116.987 0.879997ZM128.291 32.416L122.315 14.344L116.195 32.416H128.291ZM151.326 52V0.879997H186.03V11.248H163.134V22.264H181.998V31.84H163.134V52H151.326ZM192.318 52V0.879997H227.022V11.248H204.126V22.264H222.99V31.84H204.126V52H192.318ZM245.546 26.008C245.546 22.936 246.122 19.888 247.274 16.864C248.426 13.792 250.106 11.056 252.314 8.656C254.522 6.256 257.21 4.312 260.378 2.824C263.546 1.336 267.146 0.591997 271.178 0.591997C275.978 0.591997 280.13 1.624 283.634 3.688C287.186 5.752 289.826 8.44 291.554 11.752L282.482 18.088C281.906 16.744 281.162 15.64 280.25 14.776C279.386 13.864 278.426 13.144 277.37 12.616C276.314 12.04 275.234 11.656 274.13 11.464C273.026 11.224 271.946 11.104 270.89 11.104C268.634 11.104 266.666 11.56 264.986 12.472C263.306 13.384 261.914 14.56 260.81 16C259.706 17.44 258.89 19.072 258.362 20.896C257.834 22.72 257.57 24.568 257.57 26.44C257.57 28.456 257.882 30.4 258.506 32.272C259.13 34.144 260.018 35.8 261.17 37.24C262.37 38.68 263.786 39.832 265.418 40.696C267.098 41.512 268.97 41.92 271.034 41.92C272.09 41.92 273.17 41.8 274.274 41.56C275.426 41.272 276.506 40.864 277.514 40.336C278.57 39.76 279.53 39.04 280.394 38.176C281.258 37.264 281.954 36.16 282.482 34.864L292.13 40.552C291.362 42.424 290.21 44.104 288.674 45.592C287.186 47.08 285.458 48.328 283.49 49.336C281.522 50.344 279.434 51.112 277.226 51.64C275.018 52.168 272.858 52.432 270.746 52.432C267.05 52.432 263.642 51.688 260.522 50.2C257.45 48.664 254.786 46.648 252.53 44.152C250.322 41.656 248.594 38.824 247.346 35.656C246.146 32.488 245.546 29.272 245.546 26.008ZM298.068 52V0.879997H321.108C323.508 0.879997 325.716 1.384 327.732 2.392C329.796 3.4 331.572 4.72 333.06 6.352C334.548 7.984 335.7 9.832 336.516 11.896C337.38 13.96 337.812 16.048 337.812 18.16C337.812 19.744 337.62 21.28 337.236 22.768C336.852 24.208 336.3 25.576 335.58 26.872C334.86 28.168 333.972 29.344 332.916 30.4C331.908 31.408 330.756 32.272 329.46 32.992L340.692 52H327.372L317.58 35.512H309.876V52H298.068ZM309.876 25.216H320.676C322.068 25.216 323.268 24.568 324.276 23.272C325.284 21.928 325.788 20.224 325.788 18.16C325.788 16.048 325.212 14.368 324.06 13.12C322.908 11.872 321.66 11.248 320.316 11.248H309.876V25.216ZM359.425 0.879997H370.081L388.729 52H376.633L372.673 40.552H356.761L352.873 52H340.777L359.425 0.879997ZM370.729 32.416L364.753 14.344L358.633 32.416H370.729ZM393.763 52V0.879997H428.467V11.248H405.571V22.264H424.435V31.84H405.571V52H393.763ZM473.707 11.248H458.155V52H446.347V11.248H430.723V0.879997H473.707V11.248ZM515.402 41.632V52H479.474V0.879997H514.754V11.248H491.282V21.184H511.442V30.76H491.282V41.632H515.402ZM522.576 52V0.879997H545.616C548.016 0.879997 550.224 1.384 552.24 2.392C554.304 3.4 556.08 4.72 557.568 6.352C559.056 7.984 560.208 9.832 561.024 11.896C561.888 13.96 562.32 16.048 562.32 18.16C562.32 19.744 562.128 21.28 561.744 22.768C561.36 24.208 560.808 25.576 560.088 26.872C559.368 28.168 558.48 29.344 557.424 30.4C556.416 31.408 555.264 32.272 553.968 32.992L565.2 52H551.88L542.088 35.512H534.384V52H522.576ZM534.384 25.216H545.184C546.576 25.216 547.776 24.568 548.784 23.272C549.792 21.928 550.296 20.224 550.296 18.16C550.296 16.048 549.72 14.368 548.568 13.12C547.416 11.872 546.168 11.248 544.824 11.248H534.384V25.216ZM601.482 15.856C601.338 15.664 600.834 15.304 599.97 14.776C599.106 14.248 598.026 13.696 596.73 13.12C595.434 12.544 594.018 12.04 592.482 11.608C590.946 11.176 589.41 10.96 587.874 10.96C583.65 10.96 581.538 12.376 581.538 15.208C581.538 16.072 581.754 16.792 582.186 17.368C582.666 17.944 583.338 18.472 584.202 18.952C585.114 19.384 586.242 19.792 587.586 20.176C588.93 20.56 590.49 20.992 592.266 21.472C594.714 22.144 596.922 22.888 598.89 23.704C600.858 24.472 602.514 25.456 603.858 26.656C605.25 27.808 606.306 29.224 607.026 30.904C607.794 32.584 608.178 34.6 608.178 36.952C608.178 39.832 607.626 42.28 606.522 44.296C605.466 46.264 604.05 47.872 602.274 49.12C600.498 50.32 598.458 51.208 596.154 51.784C593.85 52.312 591.474 52.576 589.026 52.576C587.154 52.576 585.234 52.432 583.266 52.144C581.298 51.856 579.378 51.448 577.506 50.92C575.634 50.344 573.81 49.672 572.034 48.904C570.306 48.136 568.698 47.248 567.21 46.24L572.394 35.944C572.586 36.184 573.21 36.64 574.266 37.312C575.322 37.984 576.618 38.656 578.154 39.328C579.738 40 581.49 40.6 583.41 41.128C585.33 41.656 587.274 41.92 589.242 41.92C593.418 41.92 595.506 40.648 595.506 38.104C595.506 37.144 595.194 36.352 594.57 35.728C593.946 35.104 593.082 34.552 591.978 34.072C590.874 33.544 589.554 33.064 588.018 32.632C586.53 32.2 584.898 31.72 583.122 31.192C580.77 30.472 578.73 29.704 577.002 28.888C575.274 28.024 573.834 27.04 572.682 25.936C571.578 24.832 570.738 23.56 570.162 22.12C569.634 20.68 569.37 19 569.37 17.08C569.37 14.392 569.874 12.016 570.882 9.952C571.89 7.888 573.258 6.16 574.986 4.768C576.714 3.328 578.706 2.248 580.962 1.528C583.266 0.807998 585.69 0.447999 588.234 0.447999C590.01 0.447999 591.762 0.615998 593.49 0.951996C595.218 1.288 596.874 1.72 598.458 2.248C600.042 2.776 601.506 3.376 602.85 4.048C604.242 4.72 605.514 5.392 606.666 6.064L601.482 15.856Z" fill="#05981A"/>
</svg>
