<svg width="611" height="53" viewBox="0 0 611 53" fill="none" xmlns="http://www.w3.org/2000/svg">
<path d="M38.096 47.752C34.448 50.824 30.248 52.36 25.496 52.36C22.184 52.36 19.016 51.784 15.992 50.632C12.968 49.432 10.328 47.704 8.072 45.448C5.816 43.192 4.016 40.432 2.672 37.168C1.328 33.904 0.656 30.184 0.656 26.008C0.656 22.408 1.328 19.072 2.672 16C4.016 12.88 5.864 10.192 8.216 7.936C10.568 5.632 13.328 3.832 16.496 2.536C19.712 1.192 23.168 0.519998 26.864 0.519998C29.168 0.519998 31.376 0.783997 33.488 1.312C35.6 1.792 37.544 2.536 39.32 3.544C41.144 4.504 42.776 5.68 44.216 7.072C45.656 8.416 46.832 9.952 47.744 11.68L37.304 19.672C36.296 17.656 34.784 16.048 32.768 14.848C30.752 13.6 28.616 12.976 26.36 12.976C24.68 12.976 23.144 13.312 21.752 13.984C20.36 14.656 19.16 15.592 18.152 16.792C17.144 17.992 16.352 19.432 15.776 21.112C15.2 22.744 14.912 24.544 14.912 26.512C14.912 28.528 15.2 30.352 15.776 31.984C16.352 33.616 17.144 35.032 18.152 36.232C19.208 37.384 20.456 38.296 21.896 38.968C23.336 39.592 24.944 39.904 26.72 39.904C30.8 39.904 34.4 38.224 37.52 34.864H28.664V24.784H49.688V52H38.096V47.752ZM56.6186 52V0.879997H80.0906C82.5866 0.879997 84.8906 1.408 87.0026 2.464C89.1146 3.472 90.9146 4.816 92.4026 6.496C93.9386 8.128 95.1386 10.024 96.0026 12.184C96.8666 14.296 97.2986 16.432 97.2986 18.592C97.2986 21.568 96.6506 24.352 95.3546 26.944C94.0586 29.488 92.2586 31.576 89.9546 33.208L100.755 52H84.9146L75.9146 36.304H70.6586V52H56.6186ZM70.6586 24.064H79.5146C80.3786 24.064 81.1706 23.584 81.8906 22.624C82.6586 21.664 83.0426 20.32 83.0426 18.592C83.0426 16.816 82.6106 15.472 81.7466 14.56C80.8826 13.6 80.0186 13.12 79.1546 13.12H70.6586V24.064ZM118.453 0.879997H131.269L148.981 52H134.725L131.629 41.992H118.021L114.997 52H100.668L118.453 0.879997ZM129.397 32.632L124.861 16.792L120.109 32.632H129.397ZM153.228 52V0.879997H188.292V13.12H167.268V21.616H184.404V32.992H167.268V52H153.228ZM193.798 52V0.879997H228.862V13.12H207.838V21.616H224.974V32.992H207.838V52H193.798ZM245.834 26.008C245.834 22.888 246.41 19.816 247.562 16.792C248.762 13.768 250.49 11.056 252.746 8.656C255.002 6.256 257.738 4.312 260.954 2.824C264.17 1.336 267.842 0.591997 271.97 0.591997C276.914 0.591997 281.186 1.624 284.786 3.688C288.434 5.704 291.146 8.392 292.922 11.752L282.194 19.384C281.714 18.136 281.066 17.104 280.25 16.288C279.482 15.472 278.618 14.824 277.658 14.344C276.698 13.864 275.69 13.528 274.634 13.336C273.626 13.144 272.642 13.048 271.682 13.048C269.666 13.048 267.914 13.456 266.426 14.272C264.986 15.04 263.786 16.072 262.826 17.368C261.914 18.616 261.218 20.056 260.738 21.688C260.306 23.272 260.09 24.856 260.09 26.44C260.09 28.216 260.354 29.92 260.882 31.552C261.41 33.184 262.178 34.624 263.186 35.872C264.194 37.12 265.418 38.128 266.858 38.896C268.346 39.616 270.002 39.976 271.826 39.976C272.786 39.976 273.77 39.88 274.778 39.688C275.786 39.448 276.746 39.088 277.658 38.608C278.618 38.08 279.458 37.432 280.178 36.664C280.946 35.848 281.546 34.864 281.978 33.712L293.426 40.552C292.658 42.424 291.482 44.104 289.898 45.592C288.362 47.08 286.586 48.328 284.57 49.336C282.602 50.344 280.466 51.112 278.162 51.64C275.906 52.168 273.698 52.432 271.538 52.432C267.746 52.432 264.266 51.688 261.098 50.2C257.978 48.664 255.266 46.648 252.962 44.152C250.706 41.656 248.954 38.824 247.706 35.656C246.458 32.488 245.834 29.272 245.834 26.008ZM298.423 52V0.879997H321.895C324.391 0.879997 326.695 1.408 328.807 2.464C330.919 3.472 332.719 4.816 334.207 6.496C335.743 8.128 336.943 10.024 337.807 12.184C338.671 14.296 339.103 16.432 339.103 18.592C339.103 21.568 338.455 24.352 337.159 26.944C335.863 29.488 334.063 31.576 331.759 33.208L342.559 52H326.719L317.719 36.304H312.463V52H298.423ZM312.463 24.064H321.319C322.183 24.064 322.975 23.584 323.695 22.624C324.463 21.664 324.847 20.32 324.847 18.592C324.847 16.816 324.415 15.472 323.551 14.56C322.687 13.6 321.823 13.12 320.959 13.12H312.463V24.064ZM360.257 0.879997H373.073L390.785 52H376.529L373.433 41.992H359.825L356.801 52H342.473L360.257 0.879997ZM371.201 32.632L366.665 16.792L361.913 32.632H371.201ZM395.033 52V0.879997H430.097V13.12H409.073V21.616H426.209V32.992H409.073V52H395.033ZM475.419 13.12H460.731V52H446.691V13.12H431.931V0.879997H475.419V13.12ZM516.965 39.76V52H480.533V0.879997H516.317V13.12H494.573V20.32H513.149V31.696H494.573V39.76H516.965ZM523.494 52V0.879997H546.966C549.462 0.879997 551.766 1.408 553.878 2.464C555.99 3.472 557.79 4.816 559.278 6.496C560.814 8.128 562.014 10.024 562.878 12.184C563.742 14.296 564.174 16.432 564.174 18.592C564.174 21.568 563.526 24.352 562.23 26.944C560.934 29.488 559.134 31.576 556.83 33.208L567.63 52H551.79L542.79 36.304H537.534V52H523.494ZM537.534 24.064H546.39C547.254 24.064 548.046 23.584 548.766 22.624C549.534 21.664 549.918 20.32 549.918 18.592C549.918 16.816 549.486 15.472 548.622 14.56C547.758 13.6 546.894 13.12 546.03 13.12H537.534V24.064ZM603.04 17.584C601.6 16.72 600.112 15.952 598.576 15.28C597.28 14.704 595.816 14.176 594.184 13.696C592.6 13.168 591.04 12.904 589.504 12.904C588.256 12.904 587.248 13.096 586.48 13.48C585.76 13.864 585.4 14.512 585.4 15.424C585.4 16.096 585.616 16.648 586.048 17.08C586.48 17.512 587.104 17.92 587.92 18.304C588.736 18.64 589.72 18.976 590.872 19.312C592.072 19.648 593.416 20.056 594.904 20.536C597.256 21.256 599.368 22.048 601.24 22.912C603.16 23.776 604.792 24.808 606.136 26.008C607.48 27.16 608.512 28.576 609.232 30.256C609.952 31.936 610.312 33.976 610.312 36.376C610.312 39.448 609.736 42.04 608.584 44.152C607.48 46.216 605.992 47.872 604.12 49.12C602.296 50.368 600.208 51.28 597.856 51.856C595.552 52.384 593.224 52.648 590.872 52.648C589 52.648 587.08 52.504 585.112 52.216C583.144 51.928 581.176 51.52 579.208 50.992C577.288 50.464 575.416 49.84 573.592 49.12C571.816 48.4 570.16 47.584 568.624 46.672L574.672 34.36C576.352 35.416 578.104 36.352 579.928 37.168C581.464 37.888 583.192 38.536 585.112 39.112C587.08 39.688 589.072 39.976 591.088 39.976C592.624 39.976 593.68 39.784 594.256 39.4C594.88 38.968 595.192 38.416 595.192 37.744C595.192 37.024 594.88 36.424 594.256 35.944C593.68 35.416 592.864 34.96 591.808 34.576C590.752 34.192 589.528 33.808 588.136 33.424C586.792 33.04 585.352 32.584 583.816 32.056C581.56 31.288 579.616 30.472 577.984 29.608C576.352 28.696 575.008 27.688 573.952 26.584C572.896 25.432 572.104 24.136 571.576 22.696C571.096 21.256 570.856 19.6 570.856 17.728C570.856 14.896 571.36 12.4 572.368 10.24C573.424 8.08 574.84 6.28 576.616 4.84C578.392 3.4 580.408 2.32 582.664 1.6C584.968 0.831998 587.392 0.447999 589.936 0.447999C591.808 0.447999 593.632 0.639999 595.408 1.024C597.184 1.36 598.888 1.816 600.52 2.392C602.2 2.92 603.76 3.52 605.2 4.192C606.64 4.816 607.936 5.416 609.088 5.992L603.04 17.584Z" fill="white"/>
</svg>
